<svg width="122" height="25" viewBox="0 0 122 25" fill="none" xmlns="http://www.w3.org/2000/svg">
<path d="M46.0822 9.22477V0.935321H44.313V4.65374C43.7587 4.87874 43.1925 4.98532 42.6736 4.98532C41.6829 4.98532 40.9752 4.59453 40.9752 3.69453V0.935321H39.2061V3.75374C39.2061 5.67216 40.3973 6.59582 42.2254 6.60766C42.8741 6.60766 43.5818 6.48927 44.313 6.25242V9.22477H46.0822ZM49.1649 0.935321V9.22477H55.0503V7.66161H50.9341V5.81427H54.6257V4.26295H50.9341V2.49848H54.9796V0.935321H49.1649ZM57.1911 5.17479C57.1911 8.06424 59.4439 9.39056 61.6494 9.39056C62.5222 9.39056 63.336 9.20108 64.0437 8.85766V7.11687C63.5483 7.56687 62.7699 7.80371 61.9207 7.80371C60.4818 7.80371 58.9957 6.99845 59.0075 5.17479C59.0075 3.17348 60.47 2.34453 61.9207 2.34453C62.6873 2.34453 63.4539 2.58137 63.9847 2.99585V1.30243C63.277 0.947163 62.4514 0.769531 61.6258 0.769531C59.4203 0.769531 57.2029 2.14322 57.1911 5.17479ZM65.9473 0.935321V2.534H68.483V9.22477H70.2404V2.534H72.7762V0.935321H65.9473ZM80.6031 0.935321V4.27479H76.8996V0.935321H75.1305V9.22477H76.8996V5.88532H80.6031V9.22477H82.3722V0.935321H80.6031ZM86.4268 9.22477L87.0402 7.67345H90.8143L91.4159 9.22477H93.244L89.8826 0.935321H87.9719L84.5987 9.22477H86.4268ZM88.7385 3.23269C88.8093 3.0669 88.8683 2.90111 88.9272 2.58137C88.9862 2.90111 89.0452 3.0669 89.1042 3.23269L90.26 6.20506H87.5945L88.7385 3.23269ZM96.8098 9.22477L98.8974 6.40637H100.136V9.22477H101.905V0.935321H98.5436C96.798 0.935321 95.2294 1.7169 95.2294 3.70637C95.2294 5.05637 96.0078 5.82611 97.0693 6.18137L94.7694 9.22477H96.8098ZM97.0457 3.70637C97.0457 2.87743 97.659 2.49848 98.5554 2.49848H100.136V4.92611H98.5554C97.659 4.92611 97.0457 4.53532 97.0457 3.70637Z" fill="black"/>
<path d="M46.9198 13.5312L44.1009 17.8418L41.2703 13.5312H39.6309V21.8207H41.4V16.7049L43.582 20.0444H44.6081L46.79 16.7168V21.8207H48.5592V13.5312H46.9198ZM51.6415 13.5312V21.8207H57.5269V20.2576H53.4107V18.4102H57.1023V16.8589H53.4107V15.0944H57.4561V13.5312H51.6415ZM61.1513 23.6207V21.8207H66.9775V23.6207H68.5344V20.2576H67.4847V13.5312H61.8708C61.8708 15.8405 61.6231 18.351 60.5616 20.2576H59.5944V23.6207H61.1513ZM63.522 15.1299H65.7155V20.2576H62.4369C63.1445 18.8957 63.404 16.9655 63.522 15.1299ZM78.3204 21.8207V13.5312H76.6574L72.8124 18.9431C72.836 18.5997 72.8478 18.1852 72.8478 17.8062V13.5312H71.0787V21.8207H72.7417L76.5866 16.4089C76.563 16.7523 76.5513 17.1668 76.5513 17.5457V21.8207H78.3204ZM89.6404 23.6207V20.222H88.5907V13.5312H86.8215V20.222H83.1653V13.5312H81.3961V21.8207H88.0835V23.6207H89.6404ZM99.4277 21.8207V13.5312H97.7647L93.9198 18.9431C93.9433 18.5997 93.9551 18.1852 93.9551 17.8062V13.5312H92.186V21.8207H93.849L97.6939 16.4089C97.6704 16.7523 97.6586 17.1668 97.6586 17.5457V21.8207H99.4277ZM107.976 13.5312V16.8707H104.273V13.5312H102.503V21.8207H104.273V18.4813H107.976V21.8207H109.745V13.5312H107.976ZM113.8 21.8207L114.413 20.2694H118.187L118.789 21.8207H120.617L117.256 13.5312H115.345L111.972 21.8207H113.8ZM116.111 15.8286C116.182 15.6628 116.241 15.497 116.3 15.1773C116.359 15.497 116.418 15.6628 116.477 15.8286L117.633 18.801H114.967L116.111 15.8286Z" fill="black"/>
<path d="M2.84976 13.4085L2.16569 12.7189C0.772714 11.3095 3.541e-05 9.44382 3.541e-05 7.45211C-0.00600641 5.46099 0.761306 3.58921 2.15428 2.17982C3.54188 0.775809 5.39135 0 7.35424 0C9.32259 0 11.178 0.781875 12.571 2.19128L13.2934 2.92192L2.84976 13.4085Z" fill="url(#paint0_linear_1_21)"/>
<path d="M2.84961 13.4085L14.2411 1.97086C15.6059 0.697618 17.3654 0 19.2316 0C21.1999 0 23.044 0.770414 24.437 2.17982C25.8306 3.58921 26.5919 5.46099 26.5859 7.45211C26.5859 9.44382 25.8192 11.3156 24.4263 12.725L14.7835 22.4007C14.7829 22.4014 14.7822 22.4021 14.7816 22.4034C13.9484 23.2359 12.6011 23.2338 11.7714 22.398L2.84961 13.4085Z" fill="#EB5757"/>
<defs>
<linearGradient id="paint0_linear_1_21" x1="2.43623" y1="1.97424" x2="8.39062" y2="7.9214" gradientUnits="userSpaceOnUse">
<stop stop-color="#EB5757"/>
<stop offset="0.814" stop-color="#DD4B4B"/>
<stop offset="1" stop-color="#CF3F3F"/>
</linearGradient>
</defs>
</svg>
