<svg width="32" height="32" viewBox="0 0 32 32" fill="none" xmlns="http://www.w3.org/2000/svg">
<rect x="-0.5" y="0.5" width="31" height="31" rx="15.5" transform="matrix(-1 0 0 1 31 0)" stroke="#73AEEA"/>
<path d="M21.8988 15.823C21.8338 15.6657 21.7373 15.5184 21.6095 15.3905L17.6095 11.3905C17.0888 10.8698 16.2446 10.8698 15.7239 11.3905C15.2032 11.9112 15.2032 12.7554 15.7239 13.2761L17.4477 15H11.3333C10.597 15 10 15.597 10 16.3333C10 17.0697 10.597 17.6667 11.3333 17.6667H17.4477L15.7239 19.3905C15.2032 19.9112 15.2032 20.7554 15.7239 21.2761C16.2446 21.7968 17.0888 21.7968 17.6095 21.2761L21.6095 17.2761C22.0023 16.8833 22.0988 16.3062 21.8988 15.823Z" fill="#73AEEA"/>
</svg>
