<svg width="32" height="32" viewBox="0 0 32 32" fill="none" xmlns="http://www.w3.org/2000/svg">
<rect x="0.5" y="0.5" width="31" height="31" rx="15.5" stroke="#73AEEA"/>
<path d="M10.1012 15.823C10.1662 15.6657 10.2627 15.5184 10.3905 15.3905L14.3905 11.3905C14.9112 10.8698 15.7554 10.8698 16.2761 11.3905C16.7968 11.9112 16.7968 12.7554 16.2761 13.2761L14.5523 15H20.6667C21.403 15 22 15.597 22 16.3333C22 17.0697 21.403 17.6667 20.6667 17.6667H14.5523L16.2761 19.3905C16.7968 19.9112 16.7968 20.7554 16.2761 21.2761C15.7554 21.7968 14.9112 21.7968 14.3905 21.2761L10.3905 17.2761C9.99766 16.8833 9.90121 16.3062 10.1012 15.823Z" fill="#73AEEA"/>
</svg>
